<?xml version="1.0" encoding="utf-8"?>
<!-- Generator: Adobe Illustrator 16.0.3, SVG Export Plug-In . SVG Version: 6.00 Build 0)  -->
<!DOCTYPE svg PUBLIC "-//W3C//DTD SVG 1.1//EN" "http://www.w3.org/Graphics/SVG/1.1/DTD/svg11.dtd">
<svg version="1.1" id="Capa_1" xmlns="http://www.w3.org/2000/svg" xmlns:xlink="http://www.w3.org/1999/xlink" x="0px" y="0px"
	 width="48px" height="48px" viewBox="0 0 48 48" enable-background="new 0 0 48 48" xml:space="preserve">
<path fill="rgba(0,0,0,0)" d="M48,36c0,6.627-5.373,12-12,12H12C5.373,48,0,42.627,0,36V12C0,5.373,5.373,0,12,0h24
	c6.627,0,12,5.373,12,12V36z"/>
<g>
	<path fill="#1D71B8" d="M23.967,31.658c-1.009,0-1.969-0.203-2.846-0.568c-0.428-0.177-0.833-0.396-1.216-0.647l-6.067,7.922
		c0,0-3.882-1.423-5.97-5.097C5.313,28.771,4.626,24,4.448,24H4.118c0,0-0.184,4.463,3.177,10.134
		c2.887,4.867,7.672,7.872,7.672,7.872l5.173-9.087c1.17,0.525,2.464,0.76,3.828,0.76c1.312,0,2.56-0.305,3.693-0.79l-0.979-1.733
		C25.84,31.484,24.926,31.658,23.967,31.658z"/>
</g>
</svg>
