<?xml version="1.0" encoding="utf-8"?>
<!-- Generator: Adobe Illustrator 16.0.3, SVG Export Plug-In . SVG Version: 6.00 Build 0)  -->
<!DOCTYPE svg PUBLIC "-//W3C//DTD SVG 1.1//EN" "http://www.w3.org/Graphics/SVG/1.1/DTD/svg11.dtd">
<svg version="1.1" id="Capa_1" xmlns="http://www.w3.org/2000/svg" xmlns:xlink="http://www.w3.org/1999/xlink" x="0px" y="0px"
	 width="48px" height="48px" viewBox="0 0 48 48" enable-background="new 0 0 48 48" xml:space="preserve">
<path fill="rgba(0,0,0,0)" d="M48,36c0,6.627-5.373,12-12,12H12C5.373,48,0,42.627,0,36V12C0,5.373,5.373,0,12,0h24
	c6.627,0,12,5.373,12,12V36z"/>
<g>
	<path fill="#1D71B8" d="M43.883,22.972l-10.639-0.065c-0.354-2.474-1.664-4.631-3.553-6.089l-1.02,1.677
		c1.33,1.091,2.27,2.637,2.594,4.398c0.063,0.347,0.098,0.7,0.111,1.06l9.914,1.05c0,0,0.365,4.324-1.682,8.021
		c-2.756,4.973-6.016,7.608-6.857,8.238l0.281,0.487c0,0,4.785-3.262,7.672-8.129C44.066,27.949,43.883,22.972,43.883,22.972z"/>
</g>
</svg>
