<?xml version="1.0" encoding="utf-8"?>
<!-- Generator: Adobe Illustrator 16.0.3, SVG Export Plug-In . SVG Version: 6.00 Build 0)  -->
<!DOCTYPE svg PUBLIC "-//W3C//DTD SVG 1.1//EN" "http://www.w3.org/Graphics/SVG/1.1/DTD/svg11.dtd">
<svg version="1.1" id="Capa_1" xmlns="http://www.w3.org/2000/svg" xmlns:xlink="http://www.w3.org/1999/xlink" x="0px" y="0px"
	 width="48px" height="48px" viewBox="0 0 48 48" enable-background="new 0 0 48 48" xml:space="preserve">
<path fill="rgba(0,0,0,0)" d="M48,36c0,6.627-5.373,12-12,12H12C5.373,48,0,42.627,0,36V12C0,5.373,5.373,0,12,0h24
	c6.627,0,12,5.373,12,12V36z"/>
<g>
	<path fill="#1D71B8" d="M14.732,22.654l1.97,0.06c0.351-1.688,1.276-3.164,2.561-4.219c0.262-0.215,0.542-0.405,0.832-0.583
		l-3.889-9.188c0,0,3.604-2.417,7.829-2.417c5.613,0,9.466,1.531,10.49,1.986l0.287-0.487c0,0-4.18-2.711-10.771-2.733
		c-5.66-0.018-10.913,2.417-10.913,2.417l5.176,9.283C16.449,18.184,15.139,20.262,14.732,22.654z"/>
</g>
</svg>
